<?xml version="1.0" encoding="utf-8"?>
<!-- Generator: Adobe Illustrator 16.0.0, SVG Export Plug-In . SVG Version: 6.00 Build 0)  -->
<!DOCTYPE svg PUBLIC "-//W3C//DTD SVG 1.1//EN" "http://www.w3.org/Graphics/SVG/1.1/DTD/svg11.dtd">
<svg version="1.1" id="Layer_1" xmlns="http://www.w3.org/2000/svg" xmlns:xlink="http://www.w3.org/1999/xlink" x="0px" y="0px"
	 width="469.165px" height="30.344px" viewBox="0 0 469.165 30.344" style="enable-background:new 0 0 469.165 30.344;"
	 xml:space="preserve">
<style type="text/css">
<![CDATA[
	.st0{fill:#E0E0E0;}
]]>
</style>
<g>
	<path class="st0" d="M469.165,0.277c0,4.263-1.335,7.782-3.998,10.555c-2.667,2.771-6.398,4.158-11.195,4.158H132.869
		c-4.585,0-8.076,1.439-10.475,4.318c-2.399,2.879-3.599,6.557-3.599,11.035h-6.26c0-4.478-1.2-8.156-3.599-11.035
		c-2.399-2.878-5.945-4.318-10.635-4.318H15.193c-4.798,0-8.528-1.387-11.195-4.158C1.334,8.059,0,4.541,0,0.277V0h469.165V0.277z"
		/>
</g>
</svg>
