<?xml version="1.0" encoding="utf-8"?>
<!-- Generator: Adobe Illustrator 16.0.0, SVG Export Plug-In . SVG Version: 6.00 Build 0)  -->
<!DOCTYPE svg PUBLIC "-//W3C//DTD SVG 1.1//EN" "http://www.w3.org/Graphics/SVG/1.1/DTD/svg11.dtd">
<svg xmlns="http://www.w3.org/2000/svg" xmlns:xlink="http://www.w3.org/1999/xlink" viewBox="70.108 -56.117 371.775 299.871" class="logo-centered">
	<g class="logomark">
		<path d="M195.023,98.336c-4.703,0-8.66-1.491-11.869-4.472c-3.21-2.984-4.815-7.284-4.815-12.899V-38.743
			c0-5.615,1.605-9.917,4.815-12.898c3.209-2.981,7.166-4.472,11.869-4.472h18.747v17.888h-11.868V80.448h11.868v17.889H195.023z"/>
		<path d="M236.567,98.336v15.492h23.026v20.229H238.29c-8.465,0-14.67-2.15-18.615-6.456c-3.947-4.303-5.917-10.112-5.917-17.43
			V98.336H236.567z"/>
		<path d="M229.597,0.158c4.803,0,8.707,3.907,8.707,8.708c0,4.801-3.904,8.708-8.707,8.708s-8.709-3.907-8.709-8.708
			C220.888,4.066,224.793,0.158,229.597,0.158"/>
			<rect x="218.711" y="-56.113" transform="matrix(-1 -0.0022 0.0022 -1 441.4647 -93.8768)" width="3.937" height="17.856"/>
			<rect x="227.627" y="-56.113" transform="matrix(-1 -0.002 0.002 -1 459.2836 -93.9129)" width="3.937" height="17.856"/>
		<path d="M304.783,18.1c2.176-1.313,4.066-2.953,5.666-4.894c1.613-1.955,2.902-4.159,3.871-6.627
			c0.984-2.467,1.469-5.077,1.469-7.819v-36.991h11.863v-17.885H308.9c-4.697,0-8.646,1.496-11.861,4.475
			c-3.215,2.977-4.814,7.282-4.814,12.898v34.745c0,5.04-1.576,8.857-4.725,11.442c-1.588,1.288-3.385,2.259-5.381,2.901
			c-2.008-0.642-3.803-1.602-5.393-2.901c-3.15-2.585-4.736-6.402-4.736-11.442v-34.745c0-5.616-1.602-9.92-4.814-12.898
			c-3.205-2.978-7.166-4.475-11.863-4.475h-18.75v17.888h11.873v36.991c0,2.742,0.487,5.353,1.458,7.819
			c0.971,2.468,2.268,4.672,3.87,6.627c1.602,1.941,3.504,3.582,5.682,4.894c2.178,1.325,4.463,2.204,6.877,2.663v0.696
			c-2.414,0.457-4.699,1.351-6.877,2.663s-4.08,2.952-5.682,4.894c-1.601,1.956-2.899,4.158-3.87,6.626
			c-0.971,2.468-1.458,5.08-1.458,7.822v16.088l-8.013-1.834c-1.415-0.329-2.819,0.559-3.144,1.972
			c-0.323,1.414,0.56,2.82,1.973,3.144l9.184,2.103v15.516h-11.873v17.883h18.75c4.697,0,8.658-1.492,11.863-4.473
			c3.213-2.979,4.814-7.283,4.814-12.898V46.048c0-5.039,1.586-8.857,4.736-11.44c1.59-1.301,3.385-2.271,5.393-2.914
			c1.996,0.656,3.793,1.628,5.381,2.914c3.148,2.583,4.725,6.402,4.725,11.44v34.918c0,5.615,1.6,9.92,4.814,12.898
			c3.215,2.978,7.164,4.473,11.861,4.473h18.752V80.454h-11.863v-36.99c0-2.742-0.484-5.354-1.469-7.822
			c-0.969-2.468-2.258-4.671-3.871-6.626c-1.598-1.941-3.49-3.582-5.666-4.894c-2.178-1.312-4.473-2.204-6.875-2.663v-0.696
			C300.31,20.305,302.605,19.426,304.783,18.1z"/>
		</g>
		<g id="wordmark">
		<path d="M113.608,211.49h-0.348c-1.316,2.759-3.52,5.188-6.612,7.295c-3.094,2.105-7.116,3.158-12.064,3.158
			c-7.734,0-13.746-2.608-18.038-7.83c-4.292-5.22-6.438-12.894-6.438-23.024c0-10.13,2.146-17.806,6.438-23.026
			c4.292-5.22,10.304-7.83,18.038-7.83c4.948,0,8.97,1.044,12.064,3.133c3.092,2.089,5.296,4.563,6.612,7.425h0.348v-9.164h4.06
			v82.128h-4.06V211.49z M95.165,218.348c2.474,0,4.832-0.348,7.076-1.046c2.242-0.696,4.194-1.703,5.858-3.021
			c1.662-1.317,2.996-2.888,4.002-4.709c1.004-1.821,1.508-3.854,1.508-6.104v-24.878c0-2.168-0.504-4.163-1.508-5.985
			c-1.006-1.82-2.34-3.371-4.002-4.649c-1.664-1.278-3.616-2.286-5.858-3.021c-2.244-0.735-4.602-1.104-7.076-1.104
			c-6.574,0-11.658,2.15-15.254,6.452c-3.596,4.301-5.394,10.132-5.394,17.493v6.742c0,7.362,1.798,13.176,5.394,17.438
			C83.507,216.218,88.592,218.348,95.165,218.348z"/>
		<path d="M152.12,221.943c-7.733,0-13.823-2.628-18.27-7.888c-4.448-5.258-6.67-12.914-6.67-22.968
			c0-10.13,2.222-17.806,6.67-23.026c4.446-5.22,10.536-7.83,18.27-7.83c7.732,0,13.822,2.61,18.271,7.83
			c4.445,5.222,6.67,12.896,6.67,23.026c0,10.054-2.225,17.71-6.67,22.968C165.941,219.315,159.852,221.943,152.12,221.943z
			 M152.12,218.348c6.572,0,11.639-2.146,15.196-6.438c3.556-4.292,5.336-10.188,5.336-17.69v-6.264
			c0-7.578-1.78-13.494-5.336-17.748c-3.558-4.252-8.624-6.38-15.196-6.38c-6.573,0-11.64,2.128-15.195,6.38
			c-3.559,4.254-5.337,10.17-5.337,17.748v6.264c0,7.502,1.778,13.398,5.337,17.69C140.479,216.202,145.545,218.348,152.12,218.348z
			"/>
		<path d="M206.522,221.943c-7.732,0-13.822-2.628-18.27-7.888c-4.448-5.258-6.67-12.914-6.67-22.968
			c0-10.13,2.222-17.806,6.67-23.026c4.446-5.22,10.536-7.83,18.27-7.83c7.732,0,13.822,2.61,18.271,7.83
			c4.445,5.222,6.67,12.896,6.67,23.026c0,10.054-2.225,17.71-6.67,22.968C220.344,219.315,214.254,221.943,206.522,221.943z
			 M206.522,218.348c6.572,0,11.64-2.146,15.197-6.438c3.555-4.292,5.336-10.188,5.336-17.69v-6.264
			c0-7.578-1.781-13.494-5.336-17.748c-3.559-4.252-8.625-6.38-15.197-6.38s-11.639,2.128-15.194,6.38
			c-3.56,4.254-5.337,10.17-5.337,17.748v6.264c0,7.502,1.777,13.398,5.337,17.69C194.883,216.202,199.95,218.348,206.522,218.348z"
			/>
		<path d="M231.809,220.552l21.924-29.696l-21.227-29.23h4.756l18.676,25.868h0.232l18.791-25.868h4.641l-21.229,29l21.809,29.928
			h-4.756L256.17,193.99h-0.232l-19.488,26.563L231.809,220.552L231.809,220.552z"/>
		<path d="M324.03,211.49h-0.35c-1.314,2.759-3.52,5.188-6.611,7.295c-3.094,2.105-7.115,3.158-12.063,3.158
			c-7.734,0-13.746-2.608-18.039-7.83c-4.291-5.22-6.438-12.894-6.438-23.024c0-10.13,2.146-17.806,6.438-23.026
			c4.293-5.22,10.305-7.83,18.039-7.83c4.947,0,8.969,1.044,12.063,3.133s5.297,4.563,6.611,7.425h0.35v-36.077h4.061v85.84h-4.061
			V211.49z M305.584,218.348c2.475,0,4.832-0.348,7.076-1.046c2.242-0.696,4.193-1.703,5.857-3.021
			c1.662-1.317,2.996-2.888,4.002-4.709c1.004-1.821,1.508-3.854,1.508-6.104v-24.878c0-2.168-0.504-4.163-1.508-5.985
			c-1.006-1.82-2.34-3.371-4.002-4.649c-1.664-1.278-3.615-2.286-5.857-3.021c-2.244-0.735-4.604-1.104-7.076-1.104
			c-6.574,0-11.658,2.15-15.254,6.452c-3.596,4.301-5.395,10.132-5.395,17.493v6.742c0,7.362,1.799,13.176,5.395,17.438
			C293.926,216.218,299.01,218.348,305.584,218.348z"/>
		<path d="M362.54,221.943c-7.734,0-13.824-2.628-18.271-7.888c-4.447-5.258-6.67-12.914-6.67-22.968
			c0-10.13,2.223-17.806,6.67-23.026c4.447-5.22,10.537-7.83,18.271-7.83c7.73,0,13.82,2.61,18.27,7.83
			c4.445,5.222,6.67,12.896,6.67,23.026c0,10.054-2.225,17.71-6.67,22.968C376.362,219.315,370.272,221.943,362.54,221.943z
			 M362.54,218.348c6.57,0,11.639-2.146,15.195-6.438s5.336-10.188,5.336-17.69v-6.264c0-7.578-1.779-13.494-5.336-17.748
			c-3.559-4.252-8.625-6.38-15.195-6.38c-6.574,0-11.641,2.128-15.195,6.38c-3.561,4.254-5.338,10.17-5.338,17.748v6.264
			c0,7.502,1.777,13.398,5.338,17.69C350.899,216.202,355.965,218.348,362.54,218.348z"/>
		<path d="M416.942,221.943c-7.732,0-13.822-2.628-18.27-7.888c-4.447-5.258-6.67-12.914-6.67-22.968
			c0-10.13,2.223-17.806,6.67-23.026c4.445-5.22,10.537-7.83,18.27-7.83s13.822,2.61,18.271,7.83
			c4.445,5.222,6.67,12.896,6.67,23.026c0,10.054-2.225,17.71-6.67,22.968C430.764,219.315,424.674,221.943,416.942,221.943z
			 M416.942,218.348c6.572,0,11.641-2.146,15.197-6.438c3.555-4.292,5.336-10.188,5.336-17.69v-6.264
			c0-7.578-1.781-13.494-5.336-17.748c-3.559-4.252-8.625-6.38-15.197-6.38s-11.639,2.128-15.193,6.38
			c-3.561,4.254-5.338,10.17-5.338,17.748v6.264c0,7.502,1.777,13.398,5.338,17.69C405.303,216.202,410.37,218.348,416.942,218.348z
			"/>
	</g>
</svg>
