<?xml version="1.0" encoding="utf-8"?>
<!-- Generator: Adobe Illustrator 16.0.0, SVG Export Plug-In . SVG Version: 6.00 Build 0)  -->
<!DOCTYPE svg PUBLIC "-//W3C//DTD SVG 1.1//EN" "http://www.w3.org/Graphics/SVG/1.1/DTD/svg11.dtd">
<svg version="1.1" id="Layer_1" xmlns="http://www.w3.org/2000/svg" xmlns:xlink="http://www.w3.org/1999/xlink" x="0px" y="0px"
	 width="189.805px" height="19.389px" viewBox="0 0 189.805 19.389" enable-background="new 0 0 189.805 19.389"
	 xml:space="preserve">
<g>
	<path d="M0,19.388V18.9c0-2.734,0.834-4.95,2.5-6.65c1.667-1.7,4-2.55,7-2.55h73.885c2.934,0,5.15-0.917,6.65-2.75
		c1.5-1.834,2.25-4.15,2.25-6.95h4.887c0,2.8,0.75,5.116,2.25,6.95c1.5,1.833,3.684,2.75,6.55,2.75h74.331c3,0,5.333,0.85,7,2.55
		c1.666,1.7,2.5,3.916,2.5,6.65v0.488H0z"/>
</g>
</svg>
